<svg t="1584536033226" class="icon" viewBox="0 0 1024 1024" version="1.1" xmlns="http://www.w3.org/2000/svg" p-id="6462" width="200" height="200"><path d="M857.663112 63.956637 164.779416 63.956637c-59.691497 0-100.809987 43.697221-100.809987 100.643188l0 691.88495c0 56.945967 42.429345 101.974509 100.809987 100.643188l692.883697 0c57.050344 0 100.81101-42.364877 100.81101-100.643188L958.474123 164.599825C958.474123 107.652835 916.044778 63.956637 857.663112 63.956637zM788.093641 521.212826c0 5.863545-4.76349 10.627035-10.649548 10.627035L244.999458 531.839861c-5.885034 0-10.648524-4.762467-10.648524-10.627035l0-21.277606c0-5.864568 4.76349-10.628058 10.648524-10.628058l532.443611 0c5.886057 0 10.649548 4.762467 10.649548 10.628058L788.092617 521.212826zM788.093641 329.760422c0 5.865591-4.76349 10.629081-10.649548 10.629081L244.999458 340.389504c-5.885034 0-10.648524-4.762467-10.648524-10.629081l0-21.256116c0-5.885034 4.76349-10.648524 10.648524-10.648524l532.443611 0c5.886057 0 10.649548 4.762467 10.649548 10.648524L788.092617 329.760422z" p-id="6463" fill="#BFCBD9"></path></svg>
