<svg t="1584247999685" class="icon" viewBox="0 0 1024 1024" version="1.1" xmlns="http://www.w3.org/2000/svg" p-id="10690" width="200" height="200"><path d="M435.2 921.6s-4.266667 0 0 0c-25.6-4.266667-51.2-12.8-81.066667-21.333333C128 819.2 17.066667 580.266667 98.133333 354.133333c81.066667-221.866667 320-332.8 546.133334-256 221.866667 81.066667 337.066667 328.533333 256 546.133334-4.266667 12.8-8.533333 25.6-17.066667 38.4l-4.266667 12.8c-4.266667 8.533333-17.066667 12.8-29.866666 8.533333-8.533333-4.266667-12.8-17.066667-8.533334-29.866667l8.533334-12.8c4.266667-12.8 8.533333-21.333333 12.8-29.866666 72.533333-200.533333-29.866667-422.4-230.4-494.933334-204.8-72.533333-422.4 29.866667-490.666667 230.4-72.533333 204.8 29.866667 422.4 230.4 494.933334 25.6 8.533333 46.933333 17.066667 68.266667 21.333333 12.8 0 21.333333 12.8 17.066666 25.6 0 4.266667-12.8 12.8-21.333333 12.8z" fill="#2c2c2c" p-id="10691"></path><path d="M516.266667 921.6c-12.8 0-21.333333-8.533333-21.333334-21.333333s8.533333-21.333333 21.333334-21.333334c106.666667-4.266667 213.333333-55.466667 281.6-140.8 8.533333-8.533333 21.333333-8.533333 29.866666-4.266666s8.533333 21.333333 4.266667 29.866666c-76.8 93.866667-192 153.6-315.733333 157.866667z" fill="#2c2c2c" p-id="10692"></path><path d="M439.466667 930.133333c-8.533333 0-17.066667-4.266667-21.333334-12.8l-51.2-115.2c-4.266667-12.8 0-21.333333 12.8-29.866666 12.8-4.266667 21.333333 0 29.866667 12.8l51.2 115.2c4.266667 12.8 0 21.333333-12.8 29.866666h-8.533333z" fill="#2c2c2c" p-id="10693"></path><path d="M324.266667 981.333333c-8.533333 0-17.066667-4.266667-21.333334-12.8-4.266667-12.8 0-21.333333 12.8-29.866666l115.2-51.2c12.8-4.266667 21.333333 0 29.866667 12.8 4.266667 12.8 0 21.333333-12.8 29.866666L332.8 981.333333h-8.533333z" fill="#2c2c2c" p-id="10694"></path></svg>
