<svg t="1584536087854" class="icon" viewBox="0 0 1024 1024" version="1.1" xmlns="http://www.w3.org/2000/svg" p-id="7400" width="200" height="200"><path d="M793.325268 716.600195V486.424976c0-194.110439-97.90439-296.15079-255.750244-306.081093V128.374634h-51.150048v51.969249c-152.221346 10.130107-255.750244 112.170459-255.750244 306.081093v230.175219h-76.725073v51.150049H384.124878c0 70.621034 57.254088 127.875122 127.875122 127.875122 70.631024 0 127.875122-57.254088 127.875122-127.875122h230.175219v-51.150049h-76.725073zM512 844.475317c-42.368624 0-76.725073-34.356449-76.725073-76.725073h153.450146c0 42.368624-34.356449 76.725073-76.725073 76.725073z m-230.17522-127.875122V486.424976c0-153.450146 92.269893-255.750244 230.17522-255.750244 144.299083 0 230.17522 102.300098 230.17522 255.750244v230.175219H281.82478z" p-id="7401" fill="#BFCBD9"></path><path d="M512 252.71321c-113.808859 0-206.058771 92.259902-206.058771 206.05877V693.02322h412.117542V458.77198c0-113.798868-92.249912-206.058771-206.058771-206.05877z" p-id="7402" fill="#BFCBD9"></path></svg>
